<svg width="300" height="169" viewBox="0 0 300 169" fill="none" xmlns="http://www.w3.org/2000/svg">
<rect x="0.5" y="0.5" width="298.886" height="55.8566" fill="#3366FF"/>
<rect x="0.5" y="0.5" width="298.886" height="55.8566" stroke="black"/>
<path d="M86.0181 23.1414C86.0181 23.2163 85.9881 23.2838 85.9282 23.3437C85.8832 23.3887 85.8233 23.4112 85.7483 23.4112H81.0496C80.9747 23.4112 80.9372 23.4486 80.9372 23.5236V27.0757C80.9372 27.1507 80.9747 27.1881 81.0496 27.1881H83.7474C83.8224 27.1881 83.8823 27.2181 83.9273 27.2781C83.9873 27.323 84.0172 27.383 84.0172 27.4579V29.6387C84.0172 29.7136 83.9873 29.7811 83.9273 29.841C83.8823 29.886 83.8224 29.9084 83.7474 29.9084H81.0496C80.9747 29.9084 80.9372 29.9459 80.9372 30.0209V33.5955C80.9372 33.6704 80.9747 33.7079 81.0496 33.7079H85.7483C85.8233 33.7079 85.8832 33.7379 85.9282 33.7978C85.9881 33.8428 86.0181 33.9027 86.0181 33.9777V36.1584C86.0181 36.2334 85.9881 36.3008 85.9282 36.3608C85.8832 36.4057 85.8233 36.4282 85.7483 36.4282H78.037C77.9621 36.4282 77.8946 36.4057 77.8347 36.3608C77.7897 36.3008 77.7672 36.2334 77.7672 36.1584V20.9606C77.7672 20.8857 77.7897 20.8257 77.8347 20.7808C77.8946 20.7208 77.9621 20.6908 78.037 20.6908H85.7483C85.8233 20.6908 85.8832 20.7208 85.9282 20.7808C85.9881 20.8257 86.0181 20.8857 86.0181 20.9606V23.1414ZM87.4227 36.4282C87.3178 36.4282 87.2504 36.3982 87.2204 36.3383C87.1904 36.2783 87.1904 36.2034 87.2204 36.1135L90.2779 28.627C90.2929 28.582 90.2929 28.537 90.2779 28.4921L87.2204 21.0056C87.2054 20.9756 87.1979 20.9306 87.1979 20.8707C87.1979 20.7508 87.2728 20.6908 87.4227 20.6908H90.1206C90.2704 20.6908 90.3679 20.7658 90.4128 20.9157L91.9191 25.2322C91.9341 25.2772 91.9566 25.2996 91.9866 25.2996C92.0165 25.2996 92.039 25.2772 92.054 25.2322L93.5603 20.9157C93.6053 20.7658 93.7027 20.6908 93.8526 20.6908H96.5279C96.6328 20.6908 96.7003 20.7208 96.7303 20.7808C96.7602 20.8407 96.7602 20.9157 96.7303 21.0056L93.6727 28.4921C93.6577 28.537 93.6577 28.582 93.6727 28.627L96.7303 36.1135C96.7452 36.1435 96.7527 36.1884 96.7527 36.2484C96.7527 36.3683 96.6778 36.4282 96.5279 36.4282H93.8526C93.7027 36.4282 93.6053 36.3533 93.5603 36.2034L92.054 31.9093C92.039 31.8644 92.0165 31.8419 91.9866 31.8419C91.9566 31.8419 91.9341 31.8644 91.9191 31.9093L90.3903 36.2034C90.3454 36.3533 90.248 36.4282 90.0981 36.4282H87.4227ZM106.546 23.1414C106.546 23.2163 106.516 23.2838 106.456 23.3437C106.411 23.3887 106.351 23.4112 106.276 23.4112H101.578C101.503 23.4112 101.465 23.4486 101.465 23.5236V27.0757C101.465 27.1507 101.503 27.1881 101.578 27.1881H104.275C104.35 27.1881 104.41 27.2181 104.455 27.2781C104.515 27.323 104.545 27.383 104.545 27.4579V29.6387C104.545 29.7136 104.515 29.7811 104.455 29.841C104.41 29.886 104.35 29.9084 104.275 29.9084H101.578C101.503 29.9084 101.465 29.9459 101.465 30.0209V33.5955C101.465 33.6704 101.503 33.7079 101.578 33.7079H106.276C106.351 33.7079 106.411 33.7379 106.456 33.7978C106.516 33.8428 106.546 33.9027 106.546 33.9777V36.1584C106.546 36.2334 106.516 36.3008 106.456 36.3608C106.411 36.4057 106.351 36.4282 106.276 36.4282H98.565C98.4901 36.4282 98.4226 36.4057 98.3627 36.3608C98.3177 36.3008 98.2952 36.2334 98.2952 36.1584V20.9606C98.2952 20.8857 98.3177 20.8257 98.3627 20.7808C98.4226 20.7208 98.4901 20.6908 98.565 20.6908H106.276C106.351 20.6908 106.411 20.7208 106.456 20.7808C106.516 20.8257 106.546 20.8857 106.546 20.9606V23.1414ZM112.402 36.6081C111.053 36.6081 109.967 36.2109 109.142 35.4165C108.333 34.6072 107.928 33.528 107.928 32.1791V24.895C107.928 23.561 108.333 22.4969 109.142 21.7025C109.967 20.9082 111.053 20.511 112.402 20.511C113.766 20.511 114.853 20.9082 115.662 21.7025C116.486 22.4969 116.899 23.561 116.899 24.895V25.1423C116.899 25.2172 116.869 25.2847 116.809 25.3446C116.764 25.3896 116.704 25.4121 116.629 25.4121L113.998 25.5245C113.818 25.5245 113.729 25.442 113.729 25.2772V24.6926C113.729 24.258 113.609 23.9058 113.369 23.636C113.129 23.3662 112.807 23.2313 112.402 23.2313C112.012 23.2313 111.698 23.3662 111.458 23.636C111.218 23.9058 111.098 24.258 111.098 24.6926V32.4489C111.098 32.8836 111.218 33.2358 111.458 33.5056C111.698 33.7604 112.012 33.8878 112.402 33.8878C112.807 33.8878 113.129 33.7604 113.369 33.5056C113.609 33.2358 113.729 32.8836 113.729 32.4489V31.8419C113.729 31.767 113.751 31.707 113.796 31.662C113.856 31.6021 113.923 31.5721 113.998 31.5721L116.629 31.6845C116.704 31.6845 116.764 31.7145 116.809 31.7745C116.869 31.8194 116.899 31.8794 116.899 31.9543V32.1791C116.899 33.528 116.486 34.6072 115.662 35.4165C114.838 36.2109 113.751 36.6081 112.402 36.6081ZM122.988 36.6081C121.639 36.6081 120.553 36.1884 119.728 35.3491C118.919 34.4948 118.514 33.3632 118.514 31.9543V20.9606C118.514 20.8857 118.537 20.8257 118.582 20.7808C118.642 20.7208 118.709 20.6908 118.784 20.6908H121.414C121.489 20.6908 121.549 20.7208 121.594 20.7808C121.654 20.8257 121.684 20.8857 121.684 20.9606V32.2691C121.684 32.7487 121.804 33.1384 122.044 33.4381C122.284 33.7379 122.598 33.8878 122.988 33.8878C123.378 33.8878 123.685 33.7379 123.91 33.4381C124.15 33.1384 124.27 32.7487 124.27 32.2691V20.9606C124.27 20.8857 124.292 20.8257 124.337 20.7808C124.397 20.7208 124.464 20.6908 124.539 20.6908H127.17C127.245 20.6908 127.305 20.7208 127.35 20.7808C127.41 20.8257 127.44 20.8857 127.44 20.9606V31.9543C127.44 33.3632 127.027 34.4948 126.203 35.3491C125.394 36.1884 124.322 36.6081 122.988 36.6081ZM138.063 20.6908C138.138 20.6908 138.198 20.7208 138.243 20.7808C138.302 20.8257 138.332 20.8857 138.332 20.9606V23.1414C138.332 23.2163 138.302 23.2838 138.243 23.3437C138.198 23.3887 138.138 23.4112 138.063 23.4112H135.252C135.177 23.4112 135.14 23.4486 135.14 23.5236V36.1584C135.14 36.2334 135.11 36.3008 135.05 36.3608C135.005 36.4057 134.945 36.4282 134.87 36.4282H132.24C132.165 36.4282 132.097 36.4057 132.037 36.3608C131.993 36.3008 131.97 36.2334 131.97 36.1584V23.5236C131.97 23.4486 131.933 23.4112 131.858 23.4112H129.16C129.085 23.4112 129.017 23.3887 128.957 23.3437C128.912 23.2838 128.89 23.2163 128.89 23.1414V20.9606C128.89 20.8857 128.912 20.8257 128.957 20.7808C129.017 20.7208 129.085 20.6908 129.16 20.6908H138.063ZM140.126 36.4282C140.051 36.4282 139.984 36.4057 139.924 36.3608C139.879 36.3008 139.856 36.2334 139.856 36.1584V20.9606C139.856 20.8857 139.879 20.8257 139.924 20.7808C139.984 20.7208 140.051 20.6908 140.126 20.6908H142.756C142.831 20.6908 142.891 20.7208 142.936 20.7808C142.996 20.8257 143.026 20.8857 143.026 20.9606V36.1584C143.026 36.2334 142.996 36.3008 142.936 36.3608C142.891 36.4057 142.831 36.4282 142.756 36.4282H140.126ZM149.354 36.6081C147.975 36.6081 146.874 36.2034 146.049 35.3941C145.225 34.5847 144.813 33.5056 144.813 32.1566V24.9624C144.813 23.6135 145.225 22.5344 146.049 21.725C146.874 20.9157 147.975 20.511 149.354 20.511C150.733 20.511 151.835 20.9157 152.659 21.725C153.498 22.5344 153.918 23.6135 153.918 24.9624V32.1566C153.918 33.5056 153.498 34.5847 152.659 35.3941C151.835 36.2034 150.733 36.6081 149.354 36.6081ZM149.354 33.8878C149.774 33.8878 150.111 33.7454 150.366 33.4606C150.621 33.1608 150.748 32.7712 150.748 32.2915V24.8275C150.748 24.3479 150.621 23.9657 150.366 23.6809C150.111 23.3812 149.774 23.2313 149.354 23.2313C148.934 23.2313 148.597 23.3812 148.342 23.6809C148.103 23.9657 147.983 24.3479 147.983 24.8275V32.2915C147.983 32.7712 148.103 33.1608 148.342 33.4606C148.597 33.7454 148.934 33.8878 149.354 33.8878ZM162.094 20.9606C162.094 20.8857 162.116 20.8257 162.161 20.7808C162.221 20.7208 162.288 20.6908 162.363 20.6908H164.971C165.046 20.6908 165.106 20.7208 165.151 20.7808C165.211 20.8257 165.241 20.8857 165.241 20.9606V36.1584C165.241 36.2334 165.211 36.3008 165.151 36.3608C165.106 36.4057 165.046 36.4282 164.971 36.4282H162.004C161.854 36.4282 161.756 36.3533 161.711 36.2034L158.924 27.5029C158.909 27.4579 158.879 27.4429 158.834 27.4579C158.804 27.4579 158.789 27.4804 158.789 27.5254L158.811 36.1584C158.811 36.2334 158.781 36.3008 158.721 36.3608C158.676 36.4057 158.616 36.4282 158.541 36.4282H155.934C155.859 36.4282 155.791 36.4057 155.731 36.3608C155.686 36.3008 155.664 36.2334 155.664 36.1584V20.9606C155.664 20.8857 155.686 20.8257 155.731 20.7808C155.791 20.7208 155.859 20.6908 155.934 20.6908H158.879C159.029 20.6908 159.126 20.7658 159.171 20.9157L161.981 29.6162C161.996 29.6611 162.019 29.6836 162.049 29.6836C162.094 29.6686 162.116 29.6387 162.116 29.5937L162.094 20.9606ZM173.714 41.1944C173.339 40.2951 173.032 39.2759 172.792 38.1369C172.552 36.9978 172.432 35.8961 172.432 34.832C172.432 31.9393 172.987 29.204 174.096 26.6261C175.205 24.0332 177.026 21.71 179.559 19.6567L179.851 20.0613C177.573 22.2496 175.94 24.5577 174.95 26.9858C173.961 29.4138 173.467 32.0292 173.467 34.832C173.467 37.0802 173.706 39.1261 174.186 40.9696L173.714 41.1944ZM182.21 36.743C181.566 36.743 181.026 36.6755 180.592 36.5406C180.157 36.4207 179.737 36.2559 179.333 36.046C179.033 35.8961 178.838 35.8212 178.748 35.8212C178.538 35.8212 178.306 36.061 178.051 36.5406H177.377L178.95 31.0775H179.625C179.49 31.752 179.422 32.344 179.422 32.8536C179.422 33.9027 179.677 34.6896 180.187 35.2142C180.696 35.7238 181.371 35.9786 182.21 35.9786C183.184 35.9786 183.874 35.7163 184.279 35.1917C184.698 34.6671 184.908 34.0002 184.908 33.1908C184.908 32.6213 184.788 32.1042 184.548 31.6396C184.324 31.1599 183.934 30.5904 183.379 29.9309L182.075 28.4246C181.476 27.7202 181.034 27.0832 180.749 26.5137C180.464 25.9441 180.322 25.2772 180.322 24.5128C180.322 23.4636 180.666 22.5868 181.356 21.8824C182.045 21.1779 183.012 20.8257 184.256 20.8257C184.886 20.8257 185.403 20.8932 185.807 21.0281C186.227 21.148 186.647 21.3128 187.066 21.5227C187.366 21.6726 187.561 21.7475 187.651 21.7475C187.861 21.7475 188.093 21.5077 188.348 21.0281H189.022L187.606 25.9067H186.931C187.081 25.2622 187.156 24.6926 187.156 24.198C187.156 23.2388 186.894 22.5643 186.369 22.1747C185.845 21.785 185.148 21.5901 184.279 21.5901C183.349 21.5901 182.667 21.8449 182.233 22.3545C181.798 22.8641 181.581 23.4936 181.581 24.243C181.581 24.8425 181.708 25.4046 181.963 25.9291C182.233 26.4387 182.622 26.9933 183.132 27.5928L184.436 29.0991C185.035 29.8035 185.47 30.4405 185.74 31.0101C186.025 31.5646 186.167 32.2316 186.167 33.011C186.167 33.6405 186.025 34.24 185.74 34.8095C185.455 35.3791 185.013 35.8437 184.413 36.2034C183.814 36.5631 183.08 36.743 182.21 36.743ZM191.149 23.8608C191.134 23.2163 191.089 22.7517 191.014 22.4669C190.939 22.1672 190.827 21.9723 190.677 21.8824C190.542 21.7925 190.325 21.74 190.025 21.725L190.205 21.1405H194.319L194.139 21.725C193.629 21.74 193.247 21.785 192.992 21.8599C192.753 21.9199 192.588 22.0248 192.498 22.1747C192.408 22.3245 192.363 22.5568 192.363 22.8716L192.408 24.288L192.745 34.7646L198.793 23.8608C199.212 23.1114 199.422 22.5793 199.422 22.2646C199.422 22.0697 199.317 21.9348 199.108 21.8599C198.913 21.785 198.56 21.74 198.051 21.725L198.231 21.1405H202.053L201.873 21.725C201.603 21.74 201.386 21.785 201.221 21.8599C201.056 21.9348 200.876 22.0922 200.681 22.332C200.486 22.5718 200.239 22.9615 199.939 23.5011L192.7 36.5631H191.621L191.149 23.8608ZM205.489 23.3212L201.847 33.5056C201.742 33.8053 201.645 34.0901 201.555 34.3599C201.48 34.6297 201.442 34.847 201.442 35.0119C201.442 35.2966 201.57 35.5065 201.825 35.6414C202.079 35.7613 202.514 35.8287 203.129 35.8437L202.971 36.4282H198.677L198.834 35.8437C199.239 35.8287 199.546 35.7688 199.756 35.6638C199.981 35.5439 200.176 35.3266 200.341 35.0119C200.521 34.6971 200.73 34.195 200.97 33.5056L204.365 23.9507C204.485 23.606 204.59 23.2913 204.68 23.0065C204.77 22.7067 204.815 22.4819 204.815 22.332C204.815 22.1072 204.732 21.9573 204.567 21.8824C204.417 21.7925 204.14 21.74 203.736 21.725L203.893 21.1405H206.771L206.658 34.6521L213.875 21.1405H216.415L216.258 21.725C215.883 21.755 215.591 21.8224 215.381 21.9273C215.186 22.0323 215.021 22.2421 214.887 22.5568C214.752 22.8566 214.639 23.3212 214.549 23.9507L213.245 33.5505C213.155 34.2999 213.11 34.7346 213.11 34.8545C213.11 35.2442 213.193 35.5065 213.358 35.6414C213.538 35.7613 213.86 35.8287 214.325 35.8437L214.167 36.4282H209.513L209.671 35.8437C210.3 35.8137 210.757 35.7463 211.042 35.6414C211.327 35.5214 211.537 35.3041 211.672 34.9894C211.822 34.6746 211.949 34.1575 212.054 33.4381L213.515 23.4786L206.591 36.4732H205.512L205.489 23.3212ZM220.502 19.6567C220.877 20.5559 221.184 21.5751 221.424 22.7142C221.664 23.8533 221.784 24.9549 221.784 26.0191C221.784 28.9117 221.229 31.6545 220.12 34.2475C219.011 36.8254 217.19 39.141 214.657 41.1944L214.365 40.7897C216.643 38.6015 218.277 36.2933 219.266 33.8653C220.255 31.4372 220.75 28.8218 220.75 26.0191C220.75 23.7709 220.51 21.725 220.03 19.8815L220.502 19.6567Z" fill="white"/>
<rect x="0.5" y="56.3566" width="298.886" height="55.8566" fill="#3366FF"/>
<rect x="0.5" y="56.3566" width="298.886" height="55.8566" stroke="black"/>
<path d="M55.5007 92.4646C54.6314 92.4646 53.867 92.2923 53.2076 91.9476C52.5481 91.6028 52.0385 91.1232 51.6788 90.5087C51.3191 89.8792 51.1392 89.1598 51.1392 88.3504V87.6985C51.1392 87.6235 51.1617 87.5636 51.2067 87.5186C51.2666 87.4587 51.3341 87.4287 51.409 87.4287H53.9944C54.0694 87.4287 54.1293 87.4587 54.1743 87.5186C54.2342 87.5636 54.2642 87.6235 54.2642 87.6985V88.1931C54.2642 88.6577 54.3841 89.0324 54.6239 89.3172C54.8637 89.6019 55.1635 89.7443 55.5232 89.7443C55.8829 89.7443 56.1827 89.6094 56.4225 89.3397C56.6623 89.0699 56.7822 88.7176 56.7822 88.283C56.7822 87.8334 56.6323 87.4512 56.3326 87.1364C56.0328 86.8067 55.4483 86.3271 54.579 85.6976C53.8296 85.158 53.2226 84.6784 52.7579 84.2587C52.2933 83.8391 51.8961 83.322 51.5664 82.7075C51.2366 82.093 51.0718 81.381 51.0718 80.5717C51.0718 79.2977 51.469 78.2785 52.2633 77.5141C53.0577 76.7497 54.1068 76.3676 55.4108 76.3676C56.7297 76.3676 57.7864 76.7647 58.5808 77.5591C59.3901 78.3535 59.7948 79.3951 59.7948 80.6841V81.2237C59.7948 81.2986 59.7648 81.366 59.7049 81.426C59.6599 81.471 59.5999 81.4934 59.525 81.4934H56.9396C56.8646 81.4934 56.7972 81.471 56.7372 81.426C56.6923 81.366 56.6698 81.2986 56.6698 81.2237V80.6166C56.6698 80.152 56.5499 79.7848 56.3101 79.515C56.0853 79.2303 55.7855 79.0879 55.4108 79.0879C55.0511 79.0879 54.7588 79.2228 54.534 79.4925C54.3092 79.7473 54.1968 80.1071 54.1968 80.5717C54.1968 81.0213 54.3392 81.4185 54.6239 81.7632C54.9087 82.1079 55.4708 82.5876 56.3101 83.2021C57.2393 83.8915 57.9363 84.4536 58.4009 84.8882C58.8805 85.3079 59.2477 85.78 59.5025 86.3046C59.7723 86.8142 59.9072 87.4287 59.9072 88.1481C59.9072 89.467 59.5025 90.5162 58.6932 91.2956C57.8838 92.075 56.8197 92.4646 55.5007 92.4646ZM69.6285 78.9979C69.6285 79.0729 69.5986 79.1403 69.5386 79.2003C69.4937 79.2452 69.4337 79.2677 69.3588 79.2677H64.66C64.5851 79.2677 64.5476 79.3052 64.5476 79.3801V82.9323C64.5476 83.0072 64.5851 83.0447 64.66 83.0447H67.3579C67.4328 83.0447 67.4928 83.0747 67.5377 83.1346C67.5977 83.1796 67.6276 83.2395 67.6276 83.3145V85.4952C67.6276 85.5702 67.5977 85.6376 67.5377 85.6976C67.4928 85.7425 67.4328 85.765 67.3579 85.765H64.66C64.5851 85.765 64.5476 85.8025 64.5476 85.8774V89.4521C64.5476 89.527 64.5851 89.5645 64.66 89.5645H69.3588C69.4337 89.5645 69.4937 89.5944 69.5386 89.6544C69.5986 89.6994 69.6285 89.7593 69.6285 89.8343V92.015C69.6285 92.0899 69.5986 92.1574 69.5386 92.2173C69.4937 92.2623 69.4337 92.2848 69.3588 92.2848H61.6474C61.5725 92.2848 61.5051 92.2623 61.4451 92.2173C61.4001 92.1574 61.3777 92.0899 61.3777 92.015V76.8172C61.3777 76.7423 61.4001 76.6823 61.4451 76.6373C61.5051 76.5774 61.5725 76.5474 61.6474 76.5474H69.3588C69.4337 76.5474 69.4937 76.5774 69.5386 76.6373C69.5986 76.6823 69.6285 76.7423 69.6285 76.8172V78.9979ZM79.9585 76.5474C80.0334 76.5474 80.0934 76.5774 80.1383 76.6373C80.1983 76.6823 80.2283 76.7423 80.2283 76.8172V78.9979C80.2283 79.0729 80.1983 79.1403 80.1383 79.2003C80.0934 79.2452 80.0334 79.2677 79.9585 79.2677H77.1482C77.0733 79.2677 77.0358 79.3052 77.0358 79.3801V92.015C77.0358 92.0899 77.0059 92.1574 76.9459 92.2173C76.9009 92.2623 76.841 92.2848 76.766 92.2848H74.1357C74.0607 92.2848 73.9933 92.2623 73.9333 92.2173C73.8884 92.1574 73.8659 92.0899 73.8659 92.015V79.3801C73.8659 79.3052 73.8284 79.2677 73.7535 79.2677H71.0556C70.9807 79.2677 70.9132 79.2452 70.8533 79.2003C70.8083 79.1403 70.7858 79.0729 70.7858 78.9979V76.8172C70.7858 76.7423 70.8083 76.6823 70.8533 76.6373C70.9132 76.5774 70.9807 76.5474 71.0556 76.5474H79.9585ZM90.475 76.5474C90.5499 76.5474 90.6098 76.5774 90.6548 76.6373C90.7148 76.6823 90.7447 76.7423 90.7447 76.8172V78.9979C90.7447 79.0729 90.7148 79.1403 90.6548 79.2003C90.6098 79.2452 90.5499 79.2677 90.475 79.2677H87.6647C87.5898 79.2677 87.5523 79.3052 87.5523 79.3801V92.015C87.5523 92.0899 87.5223 92.1574 87.4624 92.2173C87.4174 92.2623 87.3575 92.2848 87.2825 92.2848H84.6521C84.5772 92.2848 84.5097 92.2623 84.4498 92.2173C84.4048 92.1574 84.3823 92.0899 84.3823 92.015V79.3801C84.3823 79.3052 84.3449 79.2677 84.2699 79.2677H81.5721C81.4972 79.2677 81.4297 79.2452 81.3698 79.2003C81.3248 79.1403 81.3023 79.0729 81.3023 78.9979V76.8172C81.3023 76.7423 81.3248 76.6823 81.3698 76.6373C81.4297 76.5774 81.4972 76.5474 81.5721 76.5474H90.475ZM92.4723 92.2848C92.3974 92.2848 92.33 92.2623 92.27 92.2173C92.225 92.1574 92.2026 92.0899 92.2026 92.015V76.8172C92.2026 76.7423 92.225 76.6823 92.27 76.6373C92.33 76.5774 92.3974 76.5474 92.4723 76.5474H95.1027C95.1777 76.5474 95.2376 76.5774 95.2826 76.6373C95.3425 76.6823 95.3725 76.7423 95.3725 76.8172V89.4521C95.3725 89.527 95.41 89.5645 95.4849 89.5645H100.206C100.281 89.5645 100.341 89.5944 100.386 89.6544C100.446 89.6994 100.476 89.7593 100.476 89.8343V92.015C100.476 92.0899 100.446 92.1574 100.386 92.2173C100.341 92.2623 100.281 92.2848 100.206 92.2848H92.4723ZM110.026 78.9979C110.026 79.0729 109.996 79.1403 109.936 79.2003C109.891 79.2452 109.831 79.2677 109.756 79.2677H105.057C104.982 79.2677 104.945 79.3052 104.945 79.3801V82.9323C104.945 83.0072 104.982 83.0447 105.057 83.0447H107.755C107.83 83.0447 107.89 83.0747 107.935 83.1346C107.995 83.1796 108.025 83.2395 108.025 83.3145V85.4952C108.025 85.5702 107.995 85.6376 107.935 85.6976C107.89 85.7425 107.83 85.765 107.755 85.765H105.057C104.982 85.765 104.945 85.8025 104.945 85.8774V89.4521C104.945 89.527 104.982 89.5645 105.057 89.5645H109.756C109.831 89.5645 109.891 89.5944 109.936 89.6544C109.996 89.6994 110.026 89.7593 110.026 89.8343V92.015C110.026 92.0899 109.996 92.1574 109.936 92.2173C109.891 92.2623 109.831 92.2848 109.756 92.2848H102.045C101.97 92.2848 101.902 92.2623 101.842 92.2173C101.797 92.1574 101.775 92.0899 101.775 92.015V76.8172C101.775 76.7423 101.797 76.6823 101.842 76.6373C101.902 76.5774 101.97 76.5474 102.045 76.5474H109.756C109.831 76.5474 109.891 76.5774 109.936 76.6373C109.996 76.6823 110.026 76.7423 110.026 76.8172V78.9979ZM118.827 76.7273C118.887 76.6074 118.999 76.5474 119.164 76.5474H121.772C121.847 76.5474 121.907 76.5774 121.952 76.6373C122.012 76.6823 122.042 76.7423 122.042 76.8172V92.015C122.042 92.0899 122.012 92.1574 121.952 92.2173C121.907 92.2623 121.847 92.2848 121.772 92.2848H119.142C119.067 92.2848 118.999 92.2623 118.939 92.2173C118.894 92.1574 118.872 92.0899 118.872 92.015V81.9206C118.872 81.8606 118.857 81.8307 118.827 81.8307C118.797 81.8307 118.767 81.8532 118.737 81.8981L116.983 85.0006C116.909 85.1205 116.849 85.1805 116.804 85.1805C116.759 85.1805 116.699 85.1205 116.624 85.0006L114.87 81.8981C114.84 81.8532 114.81 81.8307 114.78 81.8307C114.75 81.8307 114.735 81.8606 114.735 81.9206V92.015C114.735 92.0899 114.705 92.1574 114.645 92.2173C114.6 92.2623 114.54 92.2848 114.466 92.2848H111.835C111.76 92.2848 111.693 92.2623 111.633 92.2173C111.588 92.1574 111.565 92.0899 111.565 92.015V76.8172C111.565 76.7423 111.588 76.6823 111.633 76.6373C111.693 76.5774 111.76 76.5474 111.835 76.5474H114.421C114.57 76.5474 114.683 76.6074 114.758 76.7273L116.759 80.3019C116.804 80.3618 116.849 80.3618 116.894 80.3019L118.827 76.7273ZM132.2 78.9979C132.2 79.0729 132.17 79.1403 132.111 79.2003C132.066 79.2452 132.006 79.2677 131.931 79.2677H127.232C127.157 79.2677 127.12 79.3052 127.12 79.3801V82.9323C127.12 83.0072 127.157 83.0447 127.232 83.0447H129.93C130.005 83.0447 130.065 83.0747 130.11 83.1346C130.17 83.1796 130.2 83.2395 130.2 83.3145V85.4952C130.2 85.5702 130.17 85.6376 130.11 85.6976C130.065 85.7425 130.005 85.765 129.93 85.765H127.232C127.157 85.765 127.12 85.8025 127.12 85.8774V89.4521C127.12 89.527 127.157 89.5645 127.232 89.5645H131.931C132.006 89.5645 132.066 89.5944 132.111 89.6544C132.17 89.6994 132.2 89.7593 132.2 89.8343V92.015C132.2 92.0899 132.17 92.1574 132.111 92.2173C132.066 92.2623 132.006 92.2848 131.931 92.2848H124.219C124.144 92.2848 124.077 92.2623 124.017 92.2173C123.972 92.1574 123.95 92.0899 123.95 92.015V76.8172C123.95 76.7423 123.972 76.6823 124.017 76.6373C124.077 76.5774 124.144 76.5474 124.219 76.5474H131.931C132.006 76.5474 132.066 76.5774 132.111 76.6373C132.17 76.6823 132.2 76.7423 132.2 76.8172V78.9979ZM140.237 76.8172C140.237 76.7423 140.26 76.6823 140.305 76.6373C140.365 76.5774 140.432 76.5474 140.507 76.5474H143.115C143.19 76.5474 143.25 76.5774 143.295 76.6373C143.355 76.6823 143.385 76.7423 143.385 76.8172V92.015C143.385 92.0899 143.355 92.1574 143.295 92.2173C143.25 92.2623 143.19 92.2848 143.115 92.2848H140.147C139.997 92.2848 139.9 92.2099 139.855 92.06L137.067 83.3594C137.052 83.3145 137.022 83.2995 136.977 83.3145C136.947 83.3145 136.932 83.337 136.932 83.3819L136.955 92.015C136.955 92.0899 136.925 92.1574 136.865 92.2173C136.82 92.2623 136.76 92.2848 136.685 92.2848H134.077C134.002 92.2848 133.935 92.2623 133.875 92.2173C133.83 92.1574 133.807 92.0899 133.807 92.015V76.8172C133.807 76.7423 133.83 76.6823 133.875 76.6373C133.935 76.5774 134.002 76.5474 134.077 76.5474H137.022C137.172 76.5474 137.27 76.6223 137.315 76.7722L140.125 85.4728C140.14 85.5177 140.162 85.5402 140.192 85.5402C140.237 85.5252 140.26 85.4952 140.26 85.4503L140.237 76.8172ZM154.079 76.5474C154.154 76.5474 154.214 76.5774 154.259 76.6373C154.319 76.6823 154.349 76.7423 154.349 76.8172V78.9979C154.349 79.0729 154.319 79.1403 154.259 79.2003C154.214 79.2452 154.154 79.2677 154.079 79.2677H151.268C151.194 79.2677 151.156 79.3052 151.156 79.3801V92.015C151.156 92.0899 151.126 92.1574 151.066 92.2173C151.021 92.2623 150.961 92.2848 150.886 92.2848H148.256C148.181 92.2848 148.114 92.2623 148.054 92.2173C148.009 92.1574 147.986 92.0899 147.986 92.015V79.3801C147.986 79.3052 147.949 79.2677 147.874 79.2677H145.176C145.101 79.2677 145.033 79.2452 144.974 79.2003C144.929 79.1403 144.906 79.0729 144.906 78.9979V76.8172C144.906 76.7423 144.929 76.6823 144.974 76.6373C145.033 76.5774 145.101 76.5474 145.176 76.5474H154.079ZM162.374 97.051C161.999 96.1517 161.692 95.1325 161.452 93.9934C161.212 92.8543 161.092 91.7527 161.092 90.6886C161.092 87.7959 161.647 85.0606 162.756 82.4826C163.865 79.8897 165.686 77.5666 168.219 75.5132L168.511 75.9179C166.233 78.1062 164.6 80.4143 163.61 82.8424C162.621 85.2704 162.127 87.8858 162.127 90.6886C162.127 92.9368 162.366 94.9826 162.846 96.8261L162.374 97.051ZM165.542 91.7003C166.052 91.6703 166.434 91.6178 166.689 91.5429C166.943 91.453 167.161 91.2806 167.341 91.0258C167.521 90.756 167.693 90.3364 167.858 89.7668L170.848 79.3352C170.968 78.9005 171.028 78.5858 171.028 78.3909C171.028 78.0462 170.915 77.8289 170.69 77.739C170.481 77.634 170.121 77.5741 169.611 77.5591L169.769 76.997H179.616L178.492 80.8639H177.817C177.937 80.3094 177.997 79.7923 177.997 79.3127C177.997 78.8031 177.9 78.4284 177.705 78.1886C177.51 77.9488 177.233 77.7989 176.873 77.739C176.528 77.664 176.019 77.6265 175.344 77.6265H172.534L170.668 84.1688H172.422C173.156 84.1688 173.711 84.1014 174.085 83.9665C174.46 83.8316 174.752 83.6067 174.962 83.292C175.187 82.9773 175.434 82.4677 175.704 81.7632H176.378L174.872 87.2039H174.198C174.288 86.6343 174.333 86.1997 174.333 85.8999C174.333 85.5552 174.265 85.3079 174.13 85.158C174.01 84.9931 173.808 84.8957 173.523 84.8657C173.238 84.8208 172.781 84.7983 172.152 84.7983H170.488L169.117 89.6319C169.027 89.9617 168.982 90.2539 168.982 90.5087C168.982 90.8984 169.102 91.1907 169.342 91.3855C169.581 91.5654 169.949 91.6553 170.443 91.6553H172.242C173.036 91.6553 173.636 91.5729 174.04 91.408C174.46 91.2281 174.842 90.8834 175.187 90.3738C175.547 89.8492 176.019 88.965 176.603 87.7209H177.278L175.704 92.2848H165.385L165.542 91.7003ZM180.353 92.4871C179.963 92.4871 179.648 92.3822 179.409 92.1724C179.169 91.9625 179.049 91.6178 179.049 91.1382C179.049 90.8235 179.139 90.4338 179.319 89.9691L182.241 82.73H180.173L180.398 82.033H182.444L183.186 79.8523L184.534 79.7174L183.523 82.033H185.928L185.704 82.73H183.208L180.51 90.0141C180.405 90.3289 180.353 90.5762 180.353 90.756C180.353 91.1157 180.51 91.2956 180.825 91.2956C181.409 91.2956 182.129 90.5462 182.983 89.0474L183.455 89.1598C182.481 91.378 181.447 92.4871 180.353 92.4871ZM189.658 92.5995C189.163 92.5995 188.773 92.4796 188.488 92.2398C188.219 91.985 188.084 91.6478 188.084 91.2281C188.084 90.8834 188.174 90.5837 188.354 90.3289C188.548 90.0741 188.826 89.9467 189.185 89.9467C189.47 89.9467 189.665 90.0366 189.77 90.2164C189.875 90.3813 189.927 90.6061 189.927 90.8909C189.927 91.0408 189.92 91.1832 189.905 91.3181C189.89 91.438 189.882 91.5579 189.882 91.6778C189.882 91.8576 189.912 91.9775 189.972 92.0375C190.452 91.8576 190.976 91.3331 191.546 90.4638C192.131 89.5795 192.618 88.5753 193.007 87.4512C193.397 86.3121 193.592 85.3004 193.592 84.4161C193.592 83.7716 193.502 83.292 193.322 82.9773C193.142 82.6475 192.857 82.4826 192.468 82.4826C190.714 82.4826 188.593 85.75 186.105 92.2848H185.004L189.613 78.7282C189.717 78.4134 189.77 78.1511 189.77 77.9413C189.77 77.7315 189.71 77.5891 189.59 77.5141C189.47 77.4242 189.283 77.3643 189.028 77.3343L188.309 77.2668L188.421 76.9071L191.141 76.3226H191.524L189.545 82.2129C189.23 83.2021 188.451 85.1055 187.207 87.9233H187.499C188.518 85.81 189.44 84.1913 190.265 83.0672C191.089 81.9281 191.906 81.3585 192.715 81.3585C193.375 81.3585 193.884 81.5759 194.244 82.0105C194.604 82.4452 194.783 83.0972 194.783 83.9665C194.783 84.9407 194.514 86.1247 193.974 87.5186C193.449 88.8975 192.79 90.0891 191.996 91.0932C191.201 92.0974 190.422 92.5995 189.658 92.5995ZM197.805 92.5995C197.116 92.5995 196.546 92.3822 196.097 91.9476C195.662 91.5129 195.445 90.8534 195.445 89.9691C195.445 88.845 195.722 87.601 196.276 86.2371C196.846 84.8732 197.58 83.7192 198.48 82.7749C199.379 81.8307 200.293 81.3585 201.222 81.3585C201.762 81.3585 202.197 81.4859 202.526 81.7407C202.856 81.9955 203.021 82.3852 203.021 82.9098C203.021 83.5693 202.766 84.2138 202.257 84.8433C201.762 85.4728 201.058 85.9973 200.143 86.417C199.229 86.8367 198.18 87.0765 196.996 87.1364C196.741 87.9907 196.614 88.7851 196.614 89.5195C196.614 90.149 196.763 90.6136 197.063 90.9134C197.363 91.2131 197.745 91.363 198.21 91.363C199.169 91.363 200.008 90.6286 200.728 89.1598L201.222 89.2947C200.773 90.3588 200.301 91.1757 199.806 91.7452C199.311 92.3148 198.644 92.5995 197.805 92.5995ZM197.176 86.5744C198.075 86.4695 198.884 86.2147 199.604 85.81C200.323 85.4053 200.878 84.9332 201.267 84.3936C201.672 83.8391 201.874 83.292 201.874 82.7524C201.874 82.2129 201.612 81.9431 201.088 81.9431C200.398 81.9431 199.686 82.4002 198.952 83.3145C198.217 84.2138 197.625 85.3004 197.176 86.5744ZM206.205 84.2587C206.414 83.5393 206.519 83.0672 206.519 82.8424C206.519 82.7075 206.497 82.6175 206.452 82.5726C206.407 82.5126 206.325 82.4826 206.205 82.4826C205.98 82.4826 205.725 82.64 205.44 82.9548C205.17 83.2695 204.848 83.8016 204.473 84.551L204.024 84.4386C204.414 83.4344 204.803 82.67 205.193 82.1454C205.583 81.6208 206.07 81.3585 206.654 81.3585C207.344 81.3585 207.688 81.7033 207.688 82.3927C207.688 82.7225 207.591 83.1871 207.396 83.7866C207.201 84.3711 206.692 85.75 205.867 87.9233H206.16C206.684 86.7542 207.194 85.6751 207.688 84.6859C208.198 83.6967 208.588 83.0072 208.857 82.6175C209.172 82.1829 209.457 81.8681 209.712 81.6733C209.982 81.4635 210.266 81.3585 210.566 81.3585C210.911 81.3585 211.196 81.4635 211.42 81.6733C211.66 81.8831 211.78 82.2129 211.78 82.6625C211.78 82.9623 211.683 83.2246 211.488 83.4494C211.308 83.6742 211.068 83.7866 210.768 83.7866C210.484 83.7866 210.274 83.6742 210.139 83.4494C210.109 83.3894 210.079 83.3145 210.049 83.2246C210.034 83.1346 210.019 83.0672 210.004 83.0222C209.944 82.7225 209.877 82.5051 209.802 82.3702C209.292 82.715 208.543 83.884 207.554 85.8774C206.579 87.8558 205.68 89.9916 204.856 92.2848H203.777L206.205 84.2587ZM213.415 92.5995C212.726 92.5995 212.156 92.3822 211.707 91.9476C211.272 91.5129 211.055 90.8534 211.055 89.9691C211.055 88.845 211.332 87.601 211.886 86.2371C212.456 84.8732 213.19 83.7192 214.09 82.7749C214.989 81.8307 215.903 81.3585 216.832 81.3585C217.372 81.3585 217.807 81.4859 218.136 81.7407C218.466 81.9955 218.631 82.3852 218.631 82.9098C218.631 83.5693 218.376 84.2138 217.867 84.8433C217.372 85.4728 216.668 85.9973 215.753 86.417C214.839 86.8367 213.79 87.0765 212.606 87.1364C212.351 87.9907 212.224 88.7851 212.224 89.5195C212.224 90.149 212.374 90.6136 212.673 90.9134C212.973 91.2131 213.355 91.363 213.82 91.363C214.779 91.363 215.618 90.6286 216.338 89.1598L216.832 89.2947C216.383 90.3588 215.911 91.1757 215.416 91.7452C214.921 92.3148 214.255 92.5995 213.415 92.5995ZM212.786 86.5744C213.685 86.4695 214.494 86.2147 215.214 85.81C215.933 85.4053 216.488 84.9332 216.877 84.3936C217.282 83.8391 217.484 83.292 217.484 82.7524C217.484 82.2129 217.222 81.9431 216.698 81.9431C216.008 81.9431 215.296 82.4002 214.562 83.3145C213.827 84.2138 213.235 85.3004 212.786 86.5744ZM220.761 92.5995C220.311 92.5995 219.929 92.4646 219.614 92.1949C219.314 91.9101 219.164 91.5054 219.164 90.9808C219.164 90.4862 219.367 89.8118 219.771 88.9575L221.907 84.2587C222.162 83.6892 222.289 83.2246 222.289 82.8648C222.289 82.61 222.177 82.4826 221.952 82.4826C221.712 82.4826 221.458 82.64 221.188 82.9548C220.918 83.2545 220.596 83.7866 220.221 84.551L219.749 84.4386C220.169 83.4344 220.566 82.67 220.94 82.1454C221.33 81.6208 221.81 81.3585 222.379 81.3585C223.144 81.3585 223.526 81.7258 223.526 82.4602C223.526 82.7299 223.473 83.0222 223.369 83.337C223.264 83.6517 223.114 84.0264 222.919 84.4611L220.738 89.2272C220.468 89.8118 220.333 90.2914 220.333 90.6661C220.333 91.1757 220.611 91.4305 221.165 91.4305C222.02 91.4305 222.971 90.5237 224.021 88.7102C225.085 86.8816 226.164 84.521 227.258 81.6283H228.315L225.909 89.6994C225.699 90.4338 225.594 90.8759 225.594 91.0258C225.594 91.2506 225.707 91.363 225.931 91.363C226.411 91.363 227.003 90.6361 227.708 89.1823L228.157 89.3172C227.693 90.3963 227.273 91.1982 226.898 91.7227C226.539 92.2323 226.089 92.4871 225.549 92.4871C225.235 92.4871 224.98 92.4122 224.785 92.2623C224.605 92.0974 224.515 91.8127 224.515 91.408C224.515 91.0783 224.643 90.5162 224.897 89.7218C225.167 88.9125 225.609 87.6685 226.224 85.9898H225.931C224.897 88.2081 223.968 89.8642 223.144 90.9584C222.334 92.0525 221.54 92.5995 220.761 92.5995ZM239.102 92.4871C238.802 92.4871 238.54 92.4047 238.315 92.2398C238.105 92.06 238 91.7602 238 91.3405C238 91.0558 238.06 90.726 238.18 90.3513C238.3 89.9766 238.495 89.5045 238.765 88.935L240.855 84.4611C241.155 83.8316 241.305 83.352 241.305 83.0222C241.305 82.6625 241.125 82.4826 240.766 82.4826C239.567 82.4826 237.596 85.75 234.853 92.2848H233.774L236.427 84.3936C236.651 83.7042 236.764 83.247 236.764 83.0222C236.764 82.6625 236.591 82.4826 236.247 82.4826C235.617 82.4826 234.868 83.307 233.998 84.9557C233.129 86.6043 232.073 89.0474 230.829 92.2848H229.749L232.177 84.1463C232.372 83.4719 232.47 83.0447 232.47 82.8648C232.47 82.61 232.365 82.4826 232.155 82.4826C231.705 82.4826 231.136 83.1721 230.446 84.551L229.997 84.4386C230.386 83.4344 230.776 82.67 231.166 82.1454C231.555 81.6208 232.035 81.3585 232.605 81.3585C233.234 81.3585 233.549 81.6958 233.549 82.3702C233.549 82.7 233.421 83.277 233.167 84.1014C232.912 84.9107 232.485 86.1847 231.885 87.9233H232.177C232.897 86.2446 233.451 85.0006 233.841 84.1913C234.231 83.3669 234.65 82.6925 235.1 82.1679C235.565 81.6283 236.059 81.3585 236.584 81.3585C237.363 81.3585 237.753 81.7707 237.753 82.5951C237.753 82.8948 237.618 83.4494 237.348 84.2587C237.093 85.0681 236.674 86.2896 236.089 87.9233H236.382C237.461 85.6601 238.36 84.0039 239.079 82.9548C239.799 81.8906 240.488 81.3585 241.148 81.3585C241.567 81.3585 241.897 81.471 242.137 81.6958C242.377 81.9056 242.497 82.2129 242.497 82.6175C242.497 83.1121 242.279 83.8241 241.845 84.7533L239.709 89.3172C239.499 89.7668 239.357 90.1115 239.282 90.3513C239.207 90.5762 239.169 90.771 239.169 90.9359C239.169 91.0708 239.207 91.1757 239.282 91.2506C239.357 91.3256 239.454 91.363 239.574 91.363C239.799 91.363 240.046 91.1982 240.316 90.8684C240.601 90.5387 240.938 89.9916 241.328 89.2272L241.777 89.3397C241.358 90.3588 240.953 91.1382 240.563 91.6778C240.174 92.2173 239.686 92.4871 239.102 92.4871ZM246.815 75.5132C247.19 76.4125 247.497 77.4317 247.737 78.5708C247.977 79.7099 248.097 80.8115 248.097 81.8756C248.097 84.7683 247.542 87.5111 246.433 90.104C245.324 92.682 243.503 94.9976 240.97 97.051L240.678 96.6463C242.956 94.458 244.59 92.1499 245.579 89.7218C246.568 87.2938 247.063 84.6784 247.063 81.8756C247.063 79.6274 246.823 77.5816 246.343 75.7381L246.815 75.5132Z" fill="white"/>
<rect x="0.5" y="112.213" width="298.886" height="55.8566" fill="#3366FF"/>
<rect x="0.5" y="112.213" width="298.886" height="55.8566" stroke="black"/>
<path d="M100.826 148.141C100.751 148.141 100.684 148.119 100.624 148.074C100.579 148.014 100.556 147.946 100.556 147.872V132.674C100.556 132.599 100.579 132.539 100.624 132.494C100.684 132.434 100.751 132.404 100.826 132.404H104.895C106.259 132.404 107.354 132.801 108.178 133.596C109.002 134.39 109.414 135.447 109.414 136.765V143.78C109.414 145.099 109.002 146.155 108.178 146.95C107.354 147.744 106.259 148.141 104.895 148.141H100.826ZM103.726 145.309C103.726 145.384 103.764 145.421 103.839 145.421L104.851 145.399C105.255 145.384 105.585 145.211 105.84 144.881C106.095 144.552 106.229 144.117 106.244 143.578V136.968C106.244 136.398 106.117 135.949 105.862 135.619C105.607 135.289 105.263 135.124 104.828 135.124H103.839C103.764 135.124 103.726 135.162 103.726 135.237V145.309ZM117.419 148.141C117.239 148.141 117.142 148.059 117.127 147.894L116.767 145.736C116.767 145.661 116.722 145.623 116.632 145.623H113.777C113.687 145.623 113.642 145.661 113.642 145.736L113.282 147.894C113.268 148.059 113.17 148.141 112.99 148.141H110.36C110.165 148.141 110.09 148.044 110.135 147.849L113.44 132.651C113.47 132.486 113.567 132.404 113.732 132.404H116.767C116.932 132.404 117.029 132.486 117.059 132.651L120.342 147.849L120.364 147.939C120.364 148.074 120.282 148.141 120.117 148.141H117.419ZM114.092 143.06C114.092 143.135 114.122 143.173 114.182 143.173H116.205C116.28 143.173 116.31 143.135 116.295 143.06L115.238 136.923C115.223 136.878 115.201 136.855 115.171 136.855C115.141 136.855 115.119 136.878 115.104 136.923L114.092 143.06ZM128.157 152.908C127.782 152.008 127.475 150.989 127.235 149.85C126.995 148.711 126.875 147.609 126.875 146.545C126.875 143.652 127.43 140.917 128.539 138.339C129.648 135.746 131.469 133.423 134.002 131.37L134.295 131.774C132.016 133.963 130.383 136.271 129.393 138.699C128.404 141.127 127.91 143.742 127.91 146.545C127.91 148.793 128.149 150.839 128.629 152.683L128.157 152.908ZM137.9 148.456C136.986 148.456 136.147 148.254 135.382 147.849C134.633 147.429 134.034 146.792 133.584 145.938C133.134 145.084 132.909 144.035 132.909 142.791C132.909 140.992 133.254 139.306 133.944 137.732C134.633 136.158 135.57 134.899 136.754 133.955C137.953 133.011 139.264 132.539 140.688 132.539C141.288 132.539 141.775 132.606 142.15 132.741C142.539 132.861 142.929 133.026 143.319 133.236C143.573 133.386 143.761 133.461 143.881 133.461C144.016 133.461 144.135 133.401 144.24 133.281C144.36 133.161 144.473 132.981 144.578 132.741H145.252L143.858 137.62H143.184C143.259 137.05 143.296 136.586 143.296 136.226C143.296 135.087 143.056 134.315 142.577 133.91C142.097 133.506 141.468 133.303 140.688 133.303C139.414 133.303 138.305 133.775 137.361 134.72C136.417 135.664 135.69 136.87 135.18 138.339C134.686 139.793 134.438 141.269 134.438 142.768C134.438 144.447 134.775 145.691 135.45 146.5C136.124 147.295 136.941 147.692 137.9 147.692C138.815 147.692 139.617 147.324 140.306 146.59C140.995 145.841 141.647 144.574 142.262 142.791H142.936L141.655 147.265C140.486 148.059 139.234 148.456 137.9 148.456ZM146.88 148.456C146.191 148.456 145.621 148.239 145.172 147.804C144.737 147.369 144.52 146.71 144.52 145.826C144.52 144.702 144.797 143.458 145.352 142.094C145.921 140.73 146.656 139.576 147.555 138.631C148.454 137.687 149.368 137.215 150.298 137.215C150.837 137.215 151.272 137.342 151.602 137.597C151.931 137.852 152.096 138.242 152.096 138.766C152.096 139.426 151.841 140.07 151.332 140.7C150.837 141.329 150.133 141.854 149.219 142.274C148.304 142.693 147.255 142.933 146.071 142.993C145.816 143.847 145.689 144.642 145.689 145.376C145.689 146.006 145.839 146.47 146.138 146.77C146.438 147.07 146.82 147.22 147.285 147.22C148.244 147.22 149.084 146.485 149.803 145.016L150.298 145.151C149.848 146.215 149.376 147.032 148.881 147.602C148.387 148.171 147.72 148.456 146.88 148.456ZM146.251 142.431C147.15 142.326 147.96 142.071 148.679 141.667C149.398 141.262 149.953 140.79 150.343 140.25C150.747 139.696 150.95 139.149 150.95 138.609C150.95 138.069 150.687 137.8 150.163 137.8C149.473 137.8 148.761 138.257 148.027 139.171C147.293 140.07 146.701 141.157 146.251 142.431ZM153.464 148.344C153.104 148.344 152.82 148.246 152.61 148.051C152.4 147.842 152.295 147.564 152.295 147.22C152.295 147.01 152.325 146.77 152.385 146.5C152.46 146.215 152.595 145.796 152.79 145.241L156.364 134.585C156.469 134.27 156.522 134.008 156.522 133.798C156.522 133.588 156.462 133.446 156.342 133.371C156.222 133.281 156.027 133.221 155.757 133.191L155.06 133.123L155.173 132.764L157.916 132.179H158.298L153.891 145.241C153.636 146.006 153.509 146.508 153.509 146.747C153.509 146.927 153.539 147.055 153.599 147.13C153.674 147.19 153.779 147.22 153.914 147.22C154.184 147.22 154.483 147.017 154.813 146.613C155.143 146.208 155.547 145.488 156.027 144.454L156.522 144.589C155.982 145.983 155.472 146.957 154.993 147.512C154.528 148.066 154.019 148.344 153.464 148.344ZM160.185 148.456C159.496 148.456 158.926 148.239 158.477 147.804C158.042 147.369 157.825 146.71 157.825 145.826C157.825 144.702 158.102 143.458 158.656 142.094C159.226 140.73 159.96 139.576 160.86 138.631C161.759 137.687 162.673 137.215 163.602 137.215C164.142 137.215 164.577 137.342 164.906 137.597C165.236 137.852 165.401 138.242 165.401 138.766C165.401 139.426 165.146 140.07 164.637 140.7C164.142 141.329 163.438 141.854 162.523 142.274C161.609 142.693 160.56 142.933 159.376 142.993C159.121 143.847 158.994 144.642 158.994 145.376C158.994 146.006 159.143 146.47 159.443 146.77C159.743 147.07 160.125 147.22 160.59 147.22C161.549 147.22 162.388 146.485 163.108 145.016L163.602 145.151C163.153 146.215 162.681 147.032 162.186 147.602C161.691 148.171 161.024 148.456 160.185 148.456ZM159.556 142.431C160.455 142.326 161.264 142.071 161.984 141.667C162.703 141.262 163.258 140.79 163.647 140.25C164.052 139.696 164.254 139.149 164.254 138.609C164.254 138.069 163.992 137.8 163.468 137.8C162.778 137.8 162.066 138.257 161.332 139.171C160.597 140.07 160.005 141.157 159.556 142.431ZM167.326 148.456C166.651 148.456 166.112 148.336 165.707 148.096C165.317 147.842 165.122 147.489 165.122 147.04C165.122 146.74 165.197 146.5 165.347 146.32C165.512 146.125 165.737 146.028 166.022 146.028C166.261 146.028 166.441 146.088 166.561 146.208C166.696 146.313 166.809 146.478 166.898 146.702C166.988 146.867 167.048 147.025 167.078 147.175C167.198 147.549 167.341 147.834 167.505 148.029C168.03 147.969 168.427 147.782 168.697 147.467C168.967 147.137 169.102 146.732 169.102 146.253C169.102 145.983 169.049 145.683 168.944 145.354C168.854 145.009 168.69 144.537 168.45 143.937L168 142.903C167.7 142.154 167.491 141.562 167.371 141.127C167.251 140.692 167.191 140.31 167.191 139.98C167.191 139.156 167.468 138.489 168.023 137.979C168.577 137.47 169.252 137.215 170.046 137.215C170.72 137.215 171.252 137.342 171.642 137.597C172.047 137.837 172.249 138.182 172.249 138.631C172.249 138.931 172.167 139.179 172.002 139.373C171.852 139.553 171.635 139.643 171.35 139.643C171.11 139.643 170.923 139.591 170.788 139.486C170.668 139.366 170.563 139.194 170.473 138.969C170.398 138.804 170.338 138.646 170.293 138.497C170.173 138.122 170.031 137.837 169.866 137.642C169.342 137.702 168.944 137.897 168.675 138.227C168.405 138.542 168.27 138.939 168.27 139.418C168.27 139.688 168.315 139.995 168.405 140.34C168.51 140.67 168.682 141.134 168.922 141.734L169.372 142.768C169.671 143.518 169.881 144.11 170.001 144.544C170.121 144.979 170.181 145.361 170.181 145.691C170.181 146.515 169.904 147.182 169.349 147.692C168.794 148.201 168.12 148.456 167.326 148.456ZM173.646 148.344C173.256 148.344 172.941 148.239 172.701 148.029C172.461 147.819 172.342 147.474 172.342 146.995C172.342 146.68 172.432 146.29 172.611 145.826L175.534 138.587H173.466L173.691 137.89H175.736L176.478 135.709L177.827 135.574L176.815 137.89H179.221L178.996 138.587H176.501L173.803 145.871C173.698 146.185 173.646 146.433 173.646 146.613C173.646 146.972 173.803 147.152 174.118 147.152C174.702 147.152 175.422 146.403 176.276 144.904L176.748 145.016C175.774 147.235 174.74 148.344 173.646 148.344ZM179.913 148.344C179.628 148.344 179.373 148.269 179.148 148.119C178.938 147.954 178.833 147.662 178.833 147.242C178.833 147.002 178.886 146.725 178.991 146.41C179.096 146.08 179.253 145.653 179.463 145.129L181.869 139.576C182.033 139.201 182.116 138.916 182.116 138.721C182.116 138.467 182.003 138.339 181.779 138.339C181.524 138.339 181.261 138.497 180.992 138.811C180.722 139.126 180.385 139.666 179.98 140.43L179.53 140.295C179.98 139.276 180.392 138.512 180.767 138.002C181.157 137.477 181.636 137.215 182.206 137.215C182.491 137.215 182.738 137.298 182.948 137.462C183.172 137.612 183.285 137.897 183.285 138.317C183.285 138.557 183.232 138.841 183.127 139.171C183.023 139.486 182.865 139.905 182.655 140.43L180.25 145.983C180.085 146.358 180.002 146.643 180.002 146.837C180.002 147.092 180.115 147.22 180.34 147.22C180.595 147.22 180.857 147.062 181.127 146.747C181.396 146.433 181.734 145.893 182.138 145.129L182.588 145.264C182.138 146.283 181.719 147.055 181.329 147.579C180.954 148.089 180.482 148.344 179.913 148.344ZM183.69 135.034C183.36 135.034 183.075 134.922 182.835 134.697C182.61 134.457 182.498 134.173 182.498 133.843C182.498 133.498 182.61 133.213 182.835 132.988C183.075 132.764 183.36 132.651 183.69 132.651C184.034 132.651 184.319 132.764 184.544 132.988C184.769 133.213 184.881 133.498 184.881 133.843C184.881 134.173 184.769 134.457 184.544 134.697C184.319 134.922 184.034 135.034 183.69 135.034ZM185.5 148.456C184.99 148.456 184.585 148.299 184.286 147.984C183.986 147.654 183.836 147.16 183.836 146.5C183.836 145.526 184.248 144.319 185.073 142.881C185.897 141.427 186.871 140.168 187.995 139.104C189.134 138.024 190.131 137.485 190.985 137.485C191.435 137.485 191.802 137.597 192.087 137.822L192.379 137.035H193.548L190.513 145.938C190.378 146.313 190.311 146.613 190.311 146.837C190.311 147.092 190.416 147.22 190.626 147.22C191.03 147.22 191.592 146.523 192.312 145.129L192.761 145.264C192.357 146.193 191.937 146.942 191.502 147.512C191.083 148.066 190.611 148.344 190.086 148.344C189.412 148.344 189.074 147.954 189.074 147.175C189.074 146.845 189.232 146.298 189.546 145.533C189.876 144.754 190.453 143.525 191.278 141.846H190.985C190.161 143.36 189.472 144.559 188.917 145.444C188.377 146.313 187.815 147.032 187.231 147.602C186.646 148.171 186.069 148.456 185.5 148.456ZM185.005 146.208C185.005 146.882 185.312 147.22 185.927 147.22C186.586 147.22 187.403 146.545 188.377 145.196C189.367 143.832 190.566 141.824 191.975 139.171C191.75 138.871 191.48 138.646 191.165 138.497C190.865 138.332 190.566 138.234 190.266 138.204C189.831 138.234 189.179 138.714 188.31 139.643C187.456 140.557 186.691 141.637 186.017 142.881C185.342 144.11 185.005 145.219 185.005 146.208ZM197.713 131.37C198.088 132.269 198.395 133.288 198.635 134.427C198.874 135.566 198.994 136.668 198.994 137.732C198.994 140.625 198.44 143.368 197.331 145.961C196.222 148.539 194.4 150.854 191.868 152.908L191.575 152.503C193.853 150.315 195.487 148.006 196.476 145.578C197.466 143.15 197.96 140.535 197.96 137.732C197.96 135.484 197.72 133.438 197.241 131.595L197.713 131.37Z" fill="white"/>
</svg>
