<svg width="300" height="57" viewBox="0 0 300 57" fill="none" xmlns="http://www.w3.org/2000/svg">
<rect x="0.5" y="0.5" width="298.886" height="55.8566" fill="#3366FF"/>
<rect x="0.5" y="0.5" width="298.886" height="55.8566" stroke="black"/>
<path d="M86.018 23.1414C86.018 23.2163 85.988 23.2838 85.9281 23.3437C85.8831 23.3887 85.8232 23.4112 85.7482 23.4112H81.0495C80.9745 23.4112 80.9371 23.4486 80.9371 23.5236V27.0757C80.9371 27.1507 80.9745 27.1881 81.0495 27.1881H83.7473C83.8223 27.1881 83.8822 27.2181 83.9272 27.2781C83.9871 27.323 84.0171 27.383 84.0171 27.4579V29.6387C84.0171 29.7136 83.9871 29.7811 83.9272 29.841C83.8822 29.886 83.8223 29.9084 83.7473 29.9084H81.0495C80.9745 29.9084 80.9371 29.9459 80.9371 30.0209V33.5955C80.9371 33.6704 80.9745 33.7079 81.0495 33.7079H85.7482C85.8232 33.7079 85.8831 33.7379 85.9281 33.7978C85.988 33.8428 86.018 33.9027 86.018 33.9777V36.1584C86.018 36.2334 85.988 36.3008 85.9281 36.3608C85.8831 36.4057 85.8232 36.4282 85.7482 36.4282H78.0369C77.962 36.4282 77.8945 36.4057 77.8346 36.3608C77.7896 36.3008 77.7671 36.2334 77.7671 36.1584V20.9606C77.7671 20.8857 77.7896 20.8257 77.8346 20.7808C77.8945 20.7208 77.962 20.6908 78.0369 20.6908H85.7482C85.8232 20.6908 85.8831 20.7208 85.9281 20.7808C85.988 20.8257 86.018 20.8857 86.018 20.9606V23.1414ZM87.4226 36.4282C87.3177 36.4282 87.2502 36.3982 87.2203 36.3383C87.1903 36.2783 87.1903 36.2034 87.2203 36.1135L90.2778 28.627C90.2928 28.582 90.2928 28.537 90.2778 28.4921L87.2203 21.0056C87.2053 20.9756 87.1978 20.9306 87.1978 20.8707C87.1978 20.7508 87.2727 20.6908 87.4226 20.6908H90.1204C90.2703 20.6908 90.3677 20.7658 90.4127 20.9157L91.919 25.2322C91.934 25.2772 91.9565 25.2996 91.9864 25.2996C92.0164 25.2996 92.0389 25.2772 92.0539 25.2322L93.5602 20.9157C93.6051 20.7658 93.7026 20.6908 93.8524 20.6908H96.5278C96.6327 20.6908 96.7002 20.7208 96.7301 20.7808C96.7601 20.8407 96.7601 20.9157 96.7301 21.0056L93.6726 28.4921C93.6576 28.537 93.6576 28.582 93.6726 28.627L96.7301 36.1135C96.7451 36.1435 96.7526 36.1884 96.7526 36.2484C96.7526 36.3683 96.6777 36.4282 96.5278 36.4282H93.8524C93.7026 36.4282 93.6051 36.3533 93.5602 36.2034L92.0539 31.9093C92.0389 31.8644 92.0164 31.8419 91.9864 31.8419C91.9565 31.8419 91.934 31.8644 91.919 31.9093L90.3902 36.2034C90.3453 36.3533 90.2478 36.4282 90.098 36.4282H87.4226ZM106.546 23.1414C106.546 23.2163 106.516 23.2838 106.456 23.3437C106.411 23.3887 106.351 23.4112 106.276 23.4112H101.577C101.503 23.4112 101.465 23.4486 101.465 23.5236V27.0757C101.465 27.1507 101.503 27.1881 101.577 27.1881H104.275C104.35 27.1881 104.41 27.2181 104.455 27.2781C104.515 27.323 104.545 27.383 104.545 27.4579V29.6387C104.545 29.7136 104.515 29.7811 104.455 29.841C104.41 29.886 104.35 29.9084 104.275 29.9084H101.577C101.503 29.9084 101.465 29.9459 101.465 30.0209V33.5955C101.465 33.6704 101.503 33.7079 101.577 33.7079H106.276C106.351 33.7079 106.411 33.7379 106.456 33.7978C106.516 33.8428 106.546 33.9027 106.546 33.9777V36.1584C106.546 36.2334 106.516 36.3008 106.456 36.3608C106.411 36.4057 106.351 36.4282 106.276 36.4282H98.5649C98.4899 36.4282 98.4225 36.4057 98.3625 36.3608C98.3176 36.3008 98.2951 36.2334 98.2951 36.1584V20.9606C98.2951 20.8857 98.3176 20.8257 98.3625 20.7808C98.4225 20.7208 98.4899 20.6908 98.5649 20.6908H106.276C106.351 20.6908 106.411 20.7208 106.456 20.7808C106.516 20.8257 106.546 20.8857 106.546 20.9606V23.1414ZM112.402 36.6081C111.053 36.6081 109.966 36.2109 109.142 35.4165C108.333 34.6072 107.928 33.528 107.928 32.1791V24.895C107.928 23.561 108.333 22.4969 109.142 21.7025C109.966 20.9082 111.053 20.511 112.402 20.511C113.766 20.511 114.853 20.9082 115.662 21.7025C116.486 22.4969 116.898 23.561 116.898 24.895V25.1423C116.898 25.2172 116.868 25.2847 116.808 25.3446C116.764 25.3896 116.704 25.4121 116.629 25.4121L113.998 25.5245C113.818 25.5245 113.728 25.442 113.728 25.2772V24.6926C113.728 24.258 113.609 23.9058 113.369 23.636C113.129 23.3662 112.807 23.2313 112.402 23.2313C112.012 23.2313 111.698 23.3662 111.458 23.636C111.218 23.9058 111.098 24.258 111.098 24.6926V32.4489C111.098 32.8836 111.218 33.2358 111.458 33.5056C111.698 33.7604 112.012 33.8878 112.402 33.8878C112.807 33.8878 113.129 33.7604 113.369 33.5056C113.609 33.2358 113.728 32.8836 113.728 32.4489V31.8419C113.728 31.767 113.751 31.707 113.796 31.662C113.856 31.6021 113.923 31.5721 113.998 31.5721L116.629 31.6845C116.704 31.6845 116.764 31.7145 116.808 31.7745C116.868 31.8194 116.898 31.8794 116.898 31.9543V32.1791C116.898 33.528 116.486 34.6072 115.662 35.4165C114.838 36.2109 113.751 36.6081 112.402 36.6081ZM122.988 36.6081C121.639 36.6081 120.552 36.1884 119.728 35.3491C118.919 34.4948 118.514 33.3632 118.514 31.9543V20.9606C118.514 20.8857 118.537 20.8257 118.582 20.7808C118.642 20.7208 118.709 20.6908 118.784 20.6908H121.414C121.489 20.6908 121.549 20.7208 121.594 20.7808C121.654 20.8257 121.684 20.8857 121.684 20.9606V32.2691C121.684 32.7487 121.804 33.1384 122.044 33.4381C122.284 33.7379 122.598 33.8878 122.988 33.8878C123.378 33.8878 123.685 33.7379 123.91 33.4381C124.15 33.1384 124.27 32.7487 124.27 32.2691V20.9606C124.27 20.8857 124.292 20.8257 124.337 20.7808C124.397 20.7208 124.464 20.6908 124.539 20.6908H127.17C127.245 20.6908 127.305 20.7208 127.35 20.7808C127.409 20.8257 127.439 20.8857 127.439 20.9606V31.9543C127.439 33.3632 127.027 34.4948 126.203 35.3491C125.394 36.1884 124.322 36.6081 122.988 36.6081ZM138.063 20.6908C138.137 20.6908 138.197 20.7208 138.242 20.7808C138.302 20.8257 138.332 20.8857 138.332 20.9606V23.1414C138.332 23.2163 138.302 23.2838 138.242 23.3437C138.197 23.3887 138.137 23.4112 138.063 23.4112H135.252C135.177 23.4112 135.14 23.4486 135.14 23.5236V36.1584C135.14 36.2334 135.11 36.3008 135.05 36.3608C135.005 36.4057 134.945 36.4282 134.87 36.4282H132.24C132.165 36.4282 132.097 36.4057 132.037 36.3608C131.992 36.3008 131.97 36.2334 131.97 36.1584V23.5236C131.97 23.4486 131.932 23.4112 131.858 23.4112H129.16C129.085 23.4112 129.017 23.3887 128.957 23.3437C128.912 23.2838 128.89 23.2163 128.89 23.1414V20.9606C128.89 20.8857 128.912 20.8257 128.957 20.7808C129.017 20.7208 129.085 20.6908 129.16 20.6908H138.063ZM140.126 36.4282C140.051 36.4282 139.983 36.4057 139.923 36.3608C139.878 36.3008 139.856 36.2334 139.856 36.1584V20.9606C139.856 20.8857 139.878 20.8257 139.923 20.7808C139.983 20.7208 140.051 20.6908 140.126 20.6908H142.756C142.831 20.6908 142.891 20.7208 142.936 20.7808C142.996 20.8257 143.026 20.8857 143.026 20.9606V36.1584C143.026 36.2334 142.996 36.3008 142.936 36.3608C142.891 36.4057 142.831 36.4282 142.756 36.4282H140.126ZM149.354 36.6081C147.975 36.6081 146.873 36.2034 146.049 35.3941C145.225 34.5847 144.813 33.5056 144.813 32.1566V24.9624C144.813 23.6135 145.225 22.5344 146.049 21.725C146.873 20.9157 147.975 20.511 149.354 20.511C150.733 20.511 151.834 20.9157 152.659 21.725C153.498 22.5344 153.918 23.6135 153.918 24.9624V32.1566C153.918 33.5056 153.498 34.5847 152.659 35.3941C151.834 36.2034 150.733 36.6081 149.354 36.6081ZM149.354 33.8878C149.774 33.8878 150.111 33.7454 150.366 33.4606C150.62 33.1608 150.748 32.7712 150.748 32.2915V24.8275C150.748 24.3479 150.62 23.9657 150.366 23.6809C150.111 23.3812 149.774 23.2313 149.354 23.2313C148.934 23.2313 148.597 23.3812 148.342 23.6809C148.102 23.9657 147.983 24.3479 147.983 24.8275V32.2915C147.983 32.7712 148.102 33.1608 148.342 33.4606C148.597 33.7454 148.934 33.8878 149.354 33.8878ZM162.093 20.9606C162.093 20.8857 162.116 20.8257 162.161 20.7808C162.221 20.7208 162.288 20.6908 162.363 20.6908H164.971C165.046 20.6908 165.106 20.7208 165.151 20.7808C165.211 20.8257 165.241 20.8857 165.241 20.9606V36.1584C165.241 36.2334 165.211 36.3008 165.151 36.3608C165.106 36.4057 165.046 36.4282 164.971 36.4282H162.004C161.854 36.4282 161.756 36.3533 161.711 36.2034L158.924 27.5029C158.909 27.4579 158.879 27.4429 158.834 27.4579C158.804 27.4579 158.789 27.4804 158.789 27.5254L158.811 36.1584C158.811 36.2334 158.781 36.3008 158.721 36.3608C158.676 36.4057 158.616 36.4282 158.541 36.4282H155.933C155.858 36.4282 155.791 36.4057 155.731 36.3608C155.686 36.3008 155.664 36.2334 155.664 36.1584V20.9606C155.664 20.8857 155.686 20.8257 155.731 20.7808C155.791 20.7208 155.858 20.6908 155.933 20.6908H158.879C159.028 20.6908 159.126 20.7658 159.171 20.9157L161.981 29.6162C161.996 29.6611 162.019 29.6836 162.049 29.6836C162.093 29.6686 162.116 29.6387 162.116 29.5937L162.093 20.9606ZM173.714 41.1944C173.339 40.2951 173.032 39.2759 172.792 38.1369C172.552 36.9978 172.432 35.8961 172.432 34.832C172.432 31.9393 172.987 29.204 174.096 26.6261C175.205 24.0332 177.026 21.71 179.559 19.6567L179.851 20.0613C177.573 22.2496 175.939 24.5577 174.95 26.9858C173.961 29.4138 173.466 32.0292 173.466 34.832C173.466 37.0802 173.706 39.1261 174.186 40.9696L173.714 41.1944ZM182.21 36.743C181.566 36.743 181.026 36.6755 180.591 36.5406C180.157 36.4207 179.737 36.2559 179.332 36.046C179.033 35.8961 178.838 35.8212 178.748 35.8212C178.538 35.8212 178.306 36.061 178.051 36.5406H177.376L178.95 31.0775H179.625C179.49 31.752 179.422 32.344 179.422 32.8536C179.422 33.9027 179.677 34.6896 180.187 35.2142C180.696 35.7238 181.371 35.9786 182.21 35.9786C183.184 35.9786 183.874 35.7163 184.278 35.1917C184.698 34.6671 184.908 34.0002 184.908 33.1908C184.908 32.6213 184.788 32.1042 184.548 31.6396C184.323 31.1599 183.934 30.5904 183.379 29.9309L182.075 28.4246C181.476 27.7202 181.034 27.0832 180.749 26.5137C180.464 25.9441 180.322 25.2772 180.322 24.5128C180.322 23.4636 180.666 22.5868 181.356 21.8824C182.045 21.1779 183.012 20.8257 184.256 20.8257C184.885 20.8257 185.403 20.8932 185.807 21.0281C186.227 21.148 186.647 21.3128 187.066 21.5227C187.366 21.6726 187.561 21.7475 187.651 21.7475C187.861 21.7475 188.093 21.5077 188.348 21.0281H189.022L187.606 25.9067H186.931C187.081 25.2622 187.156 24.6926 187.156 24.198C187.156 23.2388 186.894 22.5643 186.369 22.1747C185.845 21.785 185.148 21.5901 184.278 21.5901C183.349 21.5901 182.667 21.8449 182.233 22.3545C181.798 22.8641 181.581 23.4936 181.581 24.243C181.581 24.8425 181.708 25.4046 181.963 25.9291C182.233 26.4387 182.622 26.9933 183.132 27.5928L184.436 29.0991C185.035 29.8035 185.47 30.4405 185.74 31.0101C186.025 31.5646 186.167 32.2316 186.167 33.011C186.167 33.6405 186.025 34.24 185.74 34.8095C185.455 35.3791 185.013 35.8437 184.413 36.2034C183.814 36.5631 183.079 36.743 182.21 36.743ZM191.149 23.8608C191.134 23.2163 191.089 22.7517 191.014 22.4669C190.939 22.1672 190.827 21.9723 190.677 21.8824C190.542 21.7925 190.324 21.74 190.025 21.725L190.205 21.1405H194.319L194.139 21.725C193.629 21.74 193.247 21.785 192.992 21.8599C192.753 21.9199 192.588 22.0248 192.498 22.1747C192.408 22.3245 192.363 22.5568 192.363 22.8716L192.408 24.288L192.745 34.7646L198.793 23.8608C199.212 23.1114 199.422 22.5793 199.422 22.2646C199.422 22.0697 199.317 21.9348 199.107 21.8599C198.913 21.785 198.56 21.74 198.051 21.725L198.231 21.1405H202.053L201.873 21.725C201.603 21.74 201.386 21.785 201.221 21.8599C201.056 21.9348 200.876 22.0922 200.681 22.332C200.486 22.5718 200.239 22.9615 199.939 23.5011L192.7 36.5631H191.621L191.149 23.8608ZM205.489 23.3212L201.847 33.5056C201.742 33.8053 201.645 34.0901 201.555 34.3599C201.48 34.6297 201.442 34.847 201.442 35.0119C201.442 35.2966 201.57 35.5065 201.824 35.6414C202.079 35.7613 202.514 35.8287 203.128 35.8437L202.971 36.4282H198.677L198.834 35.8437C199.239 35.8287 199.546 35.7688 199.756 35.6638C199.981 35.5439 200.176 35.3266 200.341 35.0119C200.52 34.6971 200.73 34.195 200.97 33.5056L204.365 23.9507C204.485 23.606 204.59 23.2913 204.68 23.0065C204.77 22.7067 204.815 22.4819 204.815 22.332C204.815 22.1072 204.732 21.9573 204.567 21.8824C204.417 21.7925 204.14 21.74 203.735 21.725L203.893 21.1405H206.77L206.658 34.6521L213.875 21.1405H216.415L216.258 21.725C215.883 21.755 215.591 21.8224 215.381 21.9273C215.186 22.0323 215.021 22.2421 214.886 22.5568C214.752 22.8566 214.639 23.3212 214.549 23.9507L213.245 33.5505C213.155 34.2999 213.11 34.7346 213.11 34.8545C213.11 35.2442 213.193 35.5065 213.358 35.6414C213.538 35.7613 213.86 35.8287 214.324 35.8437L214.167 36.4282H209.513L209.671 35.8437C210.3 35.8137 210.757 35.7463 211.042 35.6414C211.327 35.5214 211.537 35.3041 211.672 34.9894C211.821 34.6746 211.949 34.1575 212.054 33.4381L213.515 23.4786L206.591 36.4732H205.511L205.489 23.3212ZM220.502 19.6567C220.877 20.5559 221.184 21.5751 221.424 22.7142C221.664 23.8533 221.784 24.9549 221.784 26.0191C221.784 28.9117 221.229 31.6545 220.12 34.2475C219.011 36.8254 217.19 39.141 214.657 41.1944L214.365 40.7897C216.643 38.6015 218.276 36.2933 219.266 33.8653C220.255 31.4372 220.749 28.8218 220.749 26.0191C220.749 23.7709 220.51 21.725 220.03 19.8815L220.502 19.6567Z" fill="white"/>
</svg>
