<svg width="1440" height="210" viewBox="0 0 1440 210" fill="none" xmlns="http://www.w3.org/2000/svg">
<path d="M342.768 0.201294C303.596 0.201294 279.197 46.9915 288.265 104.717C297.332 162.442 336.437 209.232 375.609 209.232C414.781 209.232 439.179 162.442 430.112 104.717C421.044 46.9915 381.94 0.201294 342.768 0.201294Z" fill="#3366FF"/>
<path d="M166.802 0.345673C121.567 3.33134 97.5213 51.8524 113.087 108.728C128.653 165.603 177.941 209.284 223.177 206.298C268.412 203.313 292.458 154.792 276.892 97.9163C261.326 41.0409 212.038 -2.63999 166.802 0.345673Z" fill="#3366FF"/>
<path d="M1097.24 0.201172C1136.41 0.201172 1160.81 46.9914 1151.74 104.717C1142.67 162.442 1103.57 209.232 1064.39 209.232C1025.22 209.232 1000.82 162.442 1009.89 104.717C1018.96 46.9914 1058.06 0.201172 1097.24 0.201172Z" fill="#3366FF"/>
<path d="M1273.2 0.345551C1318.44 3.33122 1342.48 51.8523 1326.92 108.728C1311.35 165.603 1262.06 209.284 1216.83 206.298C1171.59 203.313 1147.55 154.792 1163.11 97.9162C1178.68 41.0408 1227.97 -2.64012 1273.2 0.345551Z" fill="#3366FF"/>
<path d="M1467.9 0.201172C1525.62 0.201172 1561.58 46.9914 1548.22 104.717C1534.85 162.442 1477.23 209.232 1419.5 209.232C1361.78 209.232 1325.82 162.442 1339.18 104.717C1352.55 46.9914 1410.17 0.201172 1467.9 0.201172Z" fill="#3366FF"/>
<path d="M-27.8943 0.201294C-85.6196 0.201294 -121.574 46.9915 -108.212 104.717C-94.8495 162.442 -37.2234 209.232 20.5019 209.232C78.2273 209.232 114.182 162.442 100.819 104.717C87.4572 46.9915 29.8311 0.201294 -27.8943 0.201294Z" fill="#3366FF"/>
</svg>
